<?xml version="1.0" standalone="no"?>
<!DOCTYPE svg PUBLIC "-//W3C//DTD SVG 20010904//EN"
 "http://www.w3.org/TR/2001/REC-SVG-20010904/DTD/svg10.dtd">
<svg version="1.0" xmlns="http://www.w3.org/2000/svg"
 width="700.000000pt" height="700.000000pt" viewBox="0 0 700.000000 700.000000"
 preserveAspectRatio="xMidYMid meet">
<metadata>
Created by potrace 1.11, written by Peter Selinger 2001-2013
</metadata>
<g transform="translate(0.000000,700.000000) scale(0.100000,-0.100000)"
fill="#000000" stroke="none">
<path d="M1030 6169 c-62 -12 -88 -26 -136 -75 -81 -82 -74 96 -72 -2068 l3
-1931 29 -49 c34 -56 92 -101 150 -117 22 -6 90 -13 151 -15 119 -4 269 -12
325 -19 19 -2 58 -6 85 -9 64 -7 118 -15 180 -26 28 -5 66 -12 85 -15 19 -3
64 -13 100 -21 36 -9 72 -17 80 -19 117 -26 342 -101 480 -160 275 -118 549
-298 749 -491 30 -29 57 -51 61 -49 3 2 5 896 4 1987 0 1786 -2 1986 -16 2018
-59 130 -293 402 -448 520 -25 19 -49 40 -53 47 -4 7 -14 13 -22 13 -7 0 -15
3 -17 8 -3 7 -105 77 -143 98 -11 6 -54 29 -95 52 -180 98 -499 213 -682 246
-15 2 -63 12 -105 20 -105 21 -118 23 -199 31 -38 4 -80 9 -94 11 -14 2 -88 7
-165 10 -77 2 -151 6 -165 8 -14 2 -45 -1 -70 -5z"/>
<path d="M5908 6176 c-1 -2 -73 -6 -158 -10 -85 -3 -168 -8 -185 -10 -16 -2
-57 -7 -90 -11 -67 -7 -197 -29 -265 -44 -25 -5 -56 -12 -70 -14 -61 -11 -290
-81 -373 -113 -295 -114 -532 -262 -738 -460 -126 -121 -289 -330 -318 -409
-13 -35 -15 -303 -15 -2027 l-1 -1987 39 37 c108 103 124 118 206 182 228 181
536 339 851 439 89 28 310 85 374 96 212 36 309 49 475 59 47 4 144 8 215 11
113 5 137 9 182 31 62 30 108 82 128 144 11 38 13 345 12 1975 l-2 1930 -27
47 c-47 79 -105 116 -210 132 -14 2 -28 3 -30 2z"/>
<path d="M180 5297 c-59 -15 -117 -66 -150 -132 l-30 -60 2 -2050 3 -2050 27
-46 c50 -85 122 -129 211 -129 28 0 115 13 192 29 77 17 154 32 170 34 17 3
57 10 90 16 72 12 97 16 195 30 41 6 95 13 120 17 82 11 94 12 175 19 44 3 94
8 110 10 188 27 852 27 1070 0 17 -2 50 -6 75 -10 25 -3 61 -7 80 -10 67 -8
275 -45 340 -60 88 -20 98 -19 69 6 -13 11 -34 28 -45 38 -231 198 -526 352
-868 451 -111 32 -249 64 -327 75 -24 3 -56 8 -70 10 -127 21 -287 36 -449 40
-159 5 -218 12 -290 34 -203 64 -361 227 -427 443 -15 48 -17 209 -19 1648 -2
877 -4 1609 -4 1627 l0 32 -107 -1 c-60 -1 -124 -5 -143 -11z"/>
<path d="M6570 5273 c0 -21 -1 -743 -1 -1606 -1 -1770 5 -1631 -80 -1801 -37
-75 -127 -176 -199 -223 -130 -87 -218 -110 -447 -117 -94 -3 -185 -8 -204
-10 -19 -3 -68 -8 -108 -11 -41 -3 -77 -8 -80 -10 -4 -1 -33 -6 -66 -10 -440
-50 -968 -272 -1265 -532 -14 -12 -36 -31 -49 -42 -29 -25 -18 -26 66 -6 34 8
77 17 95 20 18 3 58 10 88 15 30 5 71 12 90 15 19 3 46 7 60 10 14 2 57 7 95
11 39 3 78 8 87 10 61 11 283 19 533 19 257 0 374 -5 535 -20 25 -2 74 -7 110
-10 36 -3 75 -7 85 -9 11 -2 43 -7 70 -10 118 -15 203 -27 226 -31 13 -3 35
-7 49 -9 14 -3 41 -8 60 -10 19 -3 45 -8 56 -10 12 -2 37 -7 55 -10 19 -3 88
-17 153 -31 194 -42 258 -33 337 45 87 86 79 -118 77 2184 -3 1941 -4 2043
-21 2077 -24 48 -72 96 -121 122 -34 17 -64 21 -163 24 l-123 4 0 -38z"/>
</g>
</svg>
